<?xml version="1.0" encoding="UTF-8"?>
<svg id="Layer_1" data-name="Layer 1" xmlns="http://www.w3.org/2000/svg" version="1.1" viewBox="0 0 800 800">
  <defs>
    <style>
      .cls-1 {
        fill: #ff7c0a;
        stroke-width: 0px;
      }
    </style>
  </defs>
  <path class="cls-1" d="M400,13.5C186.6,13.5,13.5,186.6,13.5,400s173,386.5,386.5,386.5,386.5-173,386.5-386.5S613.4,13.5,400,13.5ZM424.5,239.5c5.1-17.9,31.9-77.1,33.1-83.4s5.1-30.8,0-53.8c0,0,52.5,61.1,59.6,159.3,4.3,59.2-8.6,67.8-23,74.4-14.1,6.5-58,.4-68.6-28.4-8.7-24-6.2-50.3-1.2-68.2h0ZM279.6,261.7c7.1-98.2,59.6-159.3,59.6-159.3-5.1,23-1.2,47.5,0,53.8s28,65.5,33.1,83.4,7.6,44.2-1.2,68.2c-10.5,28.8-54.5,34.9-68.6,28.4-14.4-6.6-27.3-15.2-23-74.4h0ZM159.6,355.2c7.1-98.2,59.6-159.3,59.6-159.3-5.1,23-1.2,47.5,0,53.8s28,65.5,33.1,83.4,7.6,44.2-1.2,68.2c-10.5,28.8-54.5,34.9-68.6,28.4-14.4-6.6-27.3-15.2-23-74.4h0ZM567.3,617.6c-48.8,42.6-165.9,36.9-169.5,36.9s-120.7,5.7-169.5-36.9c-48.8-42.6-35-101-22.9-116.9,11.9-15.6,51.5-33.7,62.8-40.5,15.6-9.4,16.6-28,47.8-57.7s81.7-29.3,81.7-29.3c0,0,50.6-.3,81.7,29.3,31.2,29.6,32.2,48.3,47.8,57.7,11.4,6.8,50.9,24.9,62.8,40.5,12.2,15.9,26,74.3-22.8,116.9ZM614.3,429.6c-14.1,6.5-58,.4-68.6-28.4-8.7-24-6.2-50.3-1.2-68.2s31.9-77.1,33.1-83.4,5.1-30.8,0-53.8c0,0,52.5,61.1,59.6,159.3,4.3,59.2-8.6,67.8-23,74.4h0Z"/>
</svg>