<?xml version="1.0" encoding="UTF-8"?>
<svg id="Layer_1" data-name="Layer 1" xmlns="http://www.w3.org/2000/svg" version="1.1" viewBox="0 0 800 800">
  <defs>
    <style>
      .cls-1 {
        fill: #aad372;
        stroke-width: 0px;
      }
    </style>
  </defs>
  <path class="cls-1" d="M753.7,399.8c0-196.1-158.9-355-355-355S43.7,203.7,43.7,399.8s17.8,127,48.8,179.7c16.6-15.1,52.6-51.1,56.2-82.5,4.7-41-14.2-204.8,17.3-261.5,31.5-56.7,85.7-102.2,129.2-118.2,47.3-17.3,152.8-23.6,242.6,6.3s140.4,102.2,149.7,118.2c8.7,15,39.4,66.2,18.9,91.4-20.5,25.2-29.9,31.5-30.7,30.7l-63.8-69.3s-7.9-95.3-73.3-119.7c-79.3-29.6-155.2-35.4-236.3,81.9-72.9,105.5-10.2,148.9.8,216.6,9,55.4,3.9,119.7-23.6,166.2-20.9,35.2-35,61.8-46.4,74.3,28.3,14.9,58.8,26.2,91,33.1l247.7-347.6s-3.2-5.5,2.4-13.4c5.5-7.9,49.6-66.2,49.6-66.2l25.2,27.2s-45.9,56.1-52,59.9c-7.1,4.3-12.6,2-12.6,2l-243.9,341.3c19,3.1,38.4,4.8,58.2,4.8,196.1,0,355-159,355-355Z"/>
  <path class="cls-1" d="M400.8,12C186.1,12,12,186.1,12,400.8s174,388.7,388.7,388.7,388.7-174,388.7-388.7S615.5,12,400.8,12ZM398.7,753c-195.1,0-353.2-158.1-353.2-353.2S203.6,46.6,398.7,46.6s353.2,158.1,353.2,353.2-158.1,353.2-353.2,353.2Z"/>
</svg>