<?xml version="1.0" encoding="UTF-8"?>
<svg id="Layer_1" data-name="Layer 1" xmlns="http://www.w3.org/2000/svg" version="1.1" viewBox="0 0 800 800">
  <defs>
    <style>
      .cls-1 {
        fill: #3fc7eb;
        stroke-width: 0px;
      }
    </style>
  </defs>
  <path class="cls-1" d="M753.7,399.8c0-196.1-158.9-355-355-355S43.7,203.7,43.7,399.8s23.7,146,64.2,203.6l121.7-125.6,1.7,104.8,104.6-1.7-119.7,123.5c53.3,32,115.7,50.4,182.4,50.4,196.1,0,355-158.9,355-355ZM518,505l-73.8,30.9-56.4,2.4-1.8,31.9-145.9,3.4-1.1-145.9,31.9-2.7.6-56.5,28.6-74.7,102.3-58.8,9.7,3.6-1.3,10.4-86.8,101.6,9.3,73.4,21.7-37.5,125.6-61.1-57,127.6-36.8,22.9,73.6,7,98.9-89.9,10.4-1.7,3.9,9.6-55.6,104.1ZM609.6,340.3l-152.8,132.7-44.6-3.8,21-10.4,62.3-150.3-147.6,69.7-9.7,19.1-5.7-45,129.1-153.5,170.5-32.2-22.4,173.6Z"/>
  <path class="cls-1" d="M400.8,12C186.1,12,12,186.1,12,400.8s174,388.7,388.7,388.7,388.7-174,388.7-388.7S615.5,12,400.8,12ZM398.7,753c-195.1,0-353.2-158.1-353.2-353.2S203.6,46.6,398.7,46.6s353.2,158.1,353.2,353.2-158.1,353.2-353.2,353.2Z"/>
</svg>