<?xml version="1.0" encoding="UTF-8"?>
<svg id="Layer_1" data-name="Layer 1" xmlns="http://www.w3.org/2000/svg" version="1.1" viewBox="0 0 800 800">
  <defs>
    <style>
      .cls-1 {
        fill: #f48cba;
        stroke-width: 0px;
      }
    </style>
  </defs>
  <g>
    <path class="cls-1" d="M527.9,253.5c-20.6-18-52-15.9-70,4.7-18,20.6-15.9,52,4.7,70,20.6,18,52,15.9,70-4.7,18-20.6,15.9-52-4.7-70Z"/>
    <path class="cls-1" d="M753.7,399.8c0-196.1-158.9-355-355-355S43.7,203.7,43.7,399.8s34.6,174.8,91.3,237.7l240-274.8,65.3,57-239.9,274.6c56.6,38.2,124.8,60.5,198.2,60.5h0c196.1,0,355-158.9,355-355ZM263,241.8l150.3-172h0s309.7,270.5,309.7,270.5l-150.3,172L263,241.8Z"/>
  </g>
  <path class="cls-1" d="M400.8,12C186.1,12,12,186.1,12,400.8s174,388.7,388.7,388.7,388.7-174,388.7-388.7S615.5,12,400.8,12ZM398.7,753c-195.1,0-353.2-158.1-353.2-353.2S203.6,46.6,398.7,46.6s353.2,158.1,353.2,353.2-158.1,353.2-353.2,353.2Z"/>
</svg>