<?xml version="1.0" encoding="UTF-8"?>
<svg id="Layer_1" data-name="Layer 1" xmlns="http://www.w3.org/2000/svg" version="1.1" viewBox="0 0 800 800">
  <defs>
    <style>
      .cls-1 {
        fill: #fff;
        stroke-width: 0px;
      }
    </style>
  </defs>
  <polygon class="cls-1" points="390 333.3 355.9 353.8 340.9 393 346.5 446.7 400.3 442.5 436.2 420.7 436.2 420.7 450.2 383.4 438.3 336.4 390 333.3"/>
  <path class="cls-1" d="M400.8,12C186.1,12,12,186.1,12,400.8s36.2,187.5,96.1,255.8l141.1-162.8,68.7,57.2-143.7,165.7c63.8,45.9,142.1,72.9,226.6,72.9,214.7,0,388.7-174,388.7-388.7S615.5,12,400.8,12ZM540.8,595.9l-30.5-90.4-181.9,32-70.4-58.9-3.2-180.8-89.8-13s71.5-34,90.2-108.3l28.1,88.4,205.1-19.8,10.9-92.8s34,71.5,108.3,90.2l-85,28.7h0l17.4,202.5,91,14s-71.5,34-90.2,108.3Z"/>
</svg>