<?xml version="1.0" encoding="UTF-8"?>
<svg id="Layer_1" data-name="Layer 1" xmlns="http://www.w3.org/2000/svg" version="1.1" viewBox="0 0 800 800">
  <defs>
    <style>
      .cls-1 {
        fill: #fff468;
        stroke-width: 0px;
      }
    </style>
  </defs>
  <path class="cls-1" d="M400.8,12C186.1,12,12,186.1,12,400.8s174,388.7,388.7,388.7,388.7-174,388.7-388.7S615.5,12,400.8,12ZM364.2,124.9c4.2-6.3,16.7-27.2,16.7-27.2,0,0,36.6,4.5,65.3,50.8,0,0-18.7,15.7-24.2,20.8-2.8,2.6-8.3,1.3-8.3,1.3l-85.1,110.3c-16.7-36.9-59-47.4-59-47.4l94.6-100.3s-2.1-5.2,0-8.4ZM703.7,489.6c-12.7,4.7-56.3-5.4-75.8-28.3-19.5-23-52.8-98.8-88.1-120.6-32.4-20-66.5-31.7-84.8-49.6-18.3-17.9-26.4-70.4-26.4-70.4,18.6,24.5,47.8,49.9,106.1,70.3,58.4,20.3,85.3,70.7,97.3,108.2h0c15.1,47.3,71.6,90.5,71.6,90.5ZM327.1,306.2c12,29.3,50.2,53.8,50.2,53.8-7.8,3.7-36.1-.5-49.6-14.1-13.6-13.6-38.7-60.1-62.2-72.1-21.7-11.1-43.9-16.7-56.4-27.2-12.5-10.5-20.4-43.4-20.4-43.4,13.1,14.6,32.9,29.3,71.1,39.2,38.1,9.9,57.9,40.5,67.4,63.7ZM478.9,330.8s75,17.6,108.2,105.8c0,0-119,68.5-171.2,174.4-36.5,74.2-108.5,101.9-159,112.4,29.8,13.1,61.8,22.2,95.2,26.6-52.5-6.9-101.4-25.4-144-52.8,12.2-55.7,42.3-165.3,95.5-190.7,79.5-38,152.1-111,175.4-175.7ZM750.1,364.1c-3.5-35.1-12.2-68.8-25.3-100.1l-87.1,95.8c-21.4-59.9-86.3-81.6-86.3-81.6l117.5-106c-41.5-49.2-96.2-87-158.7-107.8,129.6,43.1,225.8,159.2,239.9,299.6ZM50.5,459.5c4.3,25,11.1,49,20.3,71.9,3.1-28.1,15.9-118.5,53-140,48.6-28.2,90.9-78.4,102.4-120.7,0,0,48.6,7.3,74.2,61.7,0,0-72.1,49.6-99.8,119.7-27.7,70.1-106.8,84.4-126.6,87.2,14.9,34.6,35.1,66.3,59.6,94.1-42.4-48.1-72-107.8-83.2-173.8ZM49.2,451,49.2,451.3c.4,2.7.8,5.4,1.3,8.2-.5-2.7-.9-5.4-1.3-8.2Z"/>
</svg>