<?xml version="1.0" encoding="UTF-8"?>
<svg id="Layer_1" data-name="Layer 1" xmlns="http://www.w3.org/2000/svg" version="1.1" viewBox="0 0 800 800">
  <defs>
    <style>
      .cls-1 {
        fill: #0070dd;
        stroke-width: 0px;
      }
    </style>
  </defs>
  <polygon class="cls-1" points="436.4 311.7 442.8 374.6 468.1 367 462.3 332.4 485.5 327.1 491.8 360.8 559.3 339.4 545.5 276.5 436.4 311.7"/>
  <path class="cls-1" d="M400.8,12C186.1,12,12,186.1,12,400.8s174,388.7,388.7,388.7,388.7-174,388.7-388.7S615.5,12,400.8,12ZM628.6,535.6l-134.8-75.2-5.2,119.1-43.9-38.7-112.9,136.9-37.6-195.4-101.4,38.7,47-102.4-99.3-5.2-5.2-190.2,328.1-82.6,241.4,235.1-76.3,159.9Z"/>
  <polygon class="cls-1" points="238.5 295.5 285.2 323.8 313.4 293.1 330.4 304.3 304.4 333.5 336 353.8 390.6 291.5 306.3 234.9 238.5 295.5"/>
</svg>