<?xml version="1.0" encoding="UTF-8"?>
<svg id="Layer_1" data-name="Layer 1" xmlns="http://www.w3.org/2000/svg" version="1.1" viewBox="0 0 800 800">
  <defs>
    <style>
      .cls-1 {
        fill: #8788ee;
        stroke-width: 0px;
      }
    </style>
  </defs>
  <path class="cls-1" d="M755.5,399.8c0-197-159.7-356.8-356.8-356.8S41.9,202.7,41.9,399.8s9.7,94.6,27.2,136.7l245.7-159.4s21.1-28.5-4.2-40.1c-25.3-11.6-78.6-31.7-91.8-40.6-13.2-9-23.2-28-19-40.1,4.2-12.1,14.2-16.4,24.8-11.1,10.6,5.3,91.3,44.3,117.7,41.7,26.4-2.6,116.6-72.3,144.6-95s90.2-64.9,90.2-64.9c0,0,17.4-13.2,28-4.7,10.6,8.4,13.7,16.4,3.7,30.6-10,14.2-116.6,104-116.6,104,0,0-17.4,16.9,2.6,29.6,15.3,9.6,29.6,8.4,47.5,5.3,17.9-3.2,124.6-23.7,124.6-23.7,0,0,22.7-1.6,27.4,9s4.2,22.7-8.4,28.5c-12.7,5.8-147.2,37.5-147.2,37.5,0,0-16.4,3.2-13.2,15.8,2.1,8.3,10,19,23.7,24.3,11.9,4.6,154.1,34.3,154.1,34.3,0,0,13.2,2.1,12.7,16.4-.5,14.2-8.4,17.4-15.3,17.9-6.9.5-155.7-15.8-155.7-15.8,0,0-33.2,3.7-18.5,34.3,12.8,26.6,67.6,91.3,67.6,91.3,0,0,9,14.2-2.1,23.2-11.1,9-21.6,5.3-30.1-1.1-8.4-6.3-79.2-108.7-79.2-108.7,0,0-41.7-51.2-73.9-17.9-18.7,19.3-185,180.8-229.6,224.2,60.5,47.4,136.8,75.6,219.6,75.6h0c197,0,356.8-159.7,356.8-356.8Z"/>
  <path class="cls-1" d="M400.8,12C186.1,12,12,186.1,12,400.8s174,388.7,388.7,388.7,388.7-174,388.7-388.7S615.5,12,400.8,12ZM398.7,753c-195.1,0-353.2-158.1-353.2-353.2S203.6,46.6,398.7,46.6s353.2,158.1,353.2,353.2-158.1,353.2-353.2,353.2Z"/>
</svg>