<?xml version="1.0" encoding="UTF-8"?>
<svg id="Layer_1" data-name="Layer 1" xmlns="http://www.w3.org/2000/svg" version="1.1" viewBox="0 0 800 800">
  <defs>
    <style>
      .cls-1 {
        fill: #c69b6d;
        stroke-width: 0px;
      }
    </style>
  </defs>
  <g>
    <path class="cls-1" d="M707.2,583.2c87.1-145.3,59.3-327.4-56.8-440.9-32.4,44.7-138,221.4-151.1,245.2-14.4,26-49.2,98-61.4,132.8-12.2,34.8-15.9,83.3-15.9,83.3-77.7-23.1-59.2-136.3-59.2-136.3l224.2-374.1c-1.4-.8-3-1.9-4.5-2.8-1.7-1-2.3-1.3-5-2.9l-224.2,374.1s-89.1,71-146.1,13.3c0,0,42.5-25.3,67.4-52.4,24.9-27.1,72.1-91.7,88.3-116.6,14.8-22.8,120.6-199.4,144.6-249.1C352.7,7.6,178.9,69,91.8,214.4c-86.3,144-59.9,324.1,53.5,437.7,8.5-8.4,23.6-14,23.6-14-3.8-27.7,21.7-35.2,21.7-35.2-8.4-24.2,13.6-35.1,13.6-35.1-48.2-33.2-108.5-105.9-126.9-129.9-18.4-24-14.2-44.4-14.2-44.4,2-16.7,23.3-36.8,30.5-25,54.2,88.4,127.9,149,178,143.8,31.8-3.3,79.5-31.5,79.5-31.5,0,0-2.4,55.4,9.7,85,19,46.7,107.2,83.1,210.8,89.2,13.7.8,6.1,29-7.7,38.7,0,0-16,13.3-45.9,8.4-29.9-4.9-122.4-23.9-174.4-50.7,0,0,.7,24.6-24.6,28.6,0,0,5.4,26.1-20.8,35.8,0,0,2.1,15.8-1.2,27.2h0c153.4,45.8,324.1-15.8,410.2-159.5Z"/>
    <path class="cls-1" d="M332.5,598.4c12.7-21.1,5.8-48.5-15.3-61.2s-48.5-5.8-61.2,15.3c-12.7,21.1-5.8,48.5,15.3,61.2,21.1,12.7,48.5,5.8,61.2-15.3Z"/>
  </g>
  <path class="cls-1" d="M400.8,12C186.1,12,12,186.1,12,400.8s174,388.7,388.7,388.7,388.7-174,388.7-388.7S615.5,12,400.8,12ZM398.7,753c-195.1,0-353.2-158.1-353.2-353.2S203.6,46.6,398.7,46.6s353.2,158.1,353.2,353.2-158.1,353.2-353.2,353.2Z"/>
</svg>